<?xml version="1.0" encoding="UTF-8"?>
<svg version="1.1" viewBox="0 0 700 600" xmlns="http://www.w3.org/2000/svg" xmlns:xlink="http://www.w3.org/1999/xlink">
 <g>
  <path d="m598.28 400.15h-14.285l0.003906-279.79c0-39.91-32.559-72.469-72.469-72.469h-34.238c-1.4688-2.1016-3.5703-3.7812-5.8828-5.043-7.9805-4.1992-17.434-1.6797-22.895 5.043h-55.664c2.3125 4.4102 3.7812 9.0312 4.6211 14.285h42.641l-20.586 39.07-32.348 4.832c-2.1016 0.62891-4.4102 0.83984-6.5117 1.2617-8.6133 7.3516-19.535 11.973-31.719 11.973-12.184 0-23.316-4.6211-31.93-11.973-2.1016-0.42188-4.1992-0.62891-6.3008-1.0508l-32.559-4.832-20.586-39.07h42.852c0.83984-5.043 2.5195-9.8711 4.6211-14.285h-55.453c-5.4609-6.7227-14.914-9.2422-22.895-5.043-2.3125 1.2617-4.4102 2.9414-5.8828 5.043h-32.977c-39.91 0-72.469 32.559-72.469 72.469v279.79h-15.965v140.11h15.965v0.83984h14.285v-0.83984h14.285v-140.11h-14.285v-280c0-32.137 26.254-58.184 58.184-58.184h29.199c0.21094 2.1016 0.83984 3.9922 1.6797 5.8828l32.137 61.125 55.664 28.148v281.47c0 8.8203 7.1406 16.176 16.176 16.176h4.832c8.8203 0 16.176-7.1406 16.176-16.176v-141.37h9.6641l0.62891 141.37c0 8.8203 7.1406 16.176 16.176 16.176h5.043c8.8203 0 16.176-7.1406 16.176-16.176l-0.011719-190.94v-90.742l55.453-27.938 32.137-61.125c1.0508-1.8906 1.4688-3.9922 1.6797-5.8828h30.879c32.137 0 58.184 26.047 58.184 58.184v279.79h-15.965v140.11h15.965v0.83984h14.285v-0.83984h14.285z"/>
  <path d="m387.6 69.949c0 21.227-17.207 38.438-38.438 38.438-21.23 0-38.441-17.211-38.441-38.438 0-21.23 17.211-38.441 38.441-38.441 21.23 0 38.438 17.211 38.438 38.441"/>
  <use x="67.6875" y="591.507812" xlink:href="#s"/>
  <use x="75.398438" y="591.507812" xlink:href="#d"/>
  <use x="80.578125" y="591.507812" xlink:href="#b"/>
  <use x="87.699219" y="591.507812" xlink:href="#i"/>
  <use x="94.785156" y="591.507812" xlink:href="#c"/>
  <use x="99.808594" y="591.507812" xlink:href="#b"/>
  <use x="106.929688" y="591.507812" xlink:href="#h"/>
  <use x="118.105469" y="591.507812" xlink:href="#g"/>
  <use x="125.625" y="591.507812" xlink:href="#f"/>
  <use x="136.125" y="591.507812" xlink:href="#e"/>
  <use x="142.816406" y="591.507812" xlink:href="#a"/>
  <use x="150.035156" y="591.507812" xlink:href="#a"/>
  <use x="157.25" y="591.507812" xlink:href="#a"/>
  <use x="67.6875" y="602.011719" xlink:href="#r"/>
  <use x="72.257812" y="602.011719" xlink:href="#d"/>
  <use x="77.4375" y="602.011719" xlink:href="#a"/>
  <use x="84.652344" y="602.011719" xlink:href="#q"/>
  <use x="99.253906" y="602.011719" xlink:href="#c"/>
  <use x="104.273438" y="602.011719" xlink:href="#p"/>
  <use x="111.75" y="602.011719" xlink:href="#b"/>
  <use x="122.53125" y="602.011719" xlink:href="#o"/>
  <use x="131.320312" y="602.011719" xlink:href="#a"/>
  <use x="138.535156" y="602.011719" xlink:href="#n"/>
  <use x="146.011719" y="602.011719" xlink:href="#m"/>
  <use x="157.144531" y="602.011719" xlink:href="#l"/>
  <use x="164.84375" y="602.011719" xlink:href="#d"/>
  <use x="170.023438" y="602.011719" xlink:href="#a"/>
  <use x="177.238281" y="602.011719" xlink:href="#k"/>
  <use x="180.839844" y="602.011719" xlink:href="#b"/>
  <use x="187.960938" y="602.011719" xlink:href="#j"/>
  <use x="194.1875" y="602.011719" xlink:href="#c"/>
 </g>
</svg>
